<svg width="146" height="44" viewBox="0 0 146 44" fill="none" xmlns="http://www.w3.org/2000/svg">
<path d="M14.0866 1.94339L12.8645 6.79888C11.5769 5.31849 10.4403 4.5773 9.45465 4.57531C8.90502 4.5677 8.37278 4.76783 7.96432 5.13568C7.52588 5.52953 7.22156 6.05062 7.09397 6.62601C6.97435 7.07001 6.98054 7.53853 7.11185 7.97923C7.243 8.40248 7.68712 8.95291 8.4442 9.63051C9.0945 10.1926 9.68122 10.8243 10.1938 11.5143C10.6586 12.2561 10.9396 13.0981 11.0135 13.9703C11.1546 15.0255 11.0215 16.3588 10.6141 17.9704C10.0359 20.2675 9.13472 22.0986 7.91066 23.4637C6.68661 24.8289 5.35525 25.5105 3.91658 25.5085C2.36068 25.5085 1.05515 24.7136 0 23.1239L1.34726 17.7588C1.75354 18.6494 2.29662 19.4711 2.95681 20.194C3.20161 20.4385 3.49343 20.6308 3.81464 20.7594C4.13585 20.888 4.47979 20.9501 4.82569 20.9421C6.04974 20.9421 6.85452 20.1781 7.24002 18.65C7.37237 18.162 7.37237 17.6476 7.24002 17.1597C7.11086 16.6967 6.66177 16.1343 5.89276 15.4726C5.2379 14.9267 4.64874 14.3066 4.13715 13.6246C3.67464 12.8894 3.3984 12.0525 3.33238 11.1864C3.20123 10.1313 3.34231 8.78003 3.75563 7.13272C4.29215 4.99857 5.15853 3.27575 6.35476 1.96426C7.551 0.652769 8.87441 -0.0019826 10.325 4.50932e-06C11.6643 4.50932e-06 12.9172 0.639853 14.0836 1.91955L14.0866 1.94339Z" fill="black"/>
<path d="M26.3638 0.341309H29.4815L25.9375 14.4428C25.0254 18.0673 23.7934 20.8164 22.2415 22.6903C20.6896 24.5641 18.9101 25.501 16.9032 25.501C14.9161 25.501 13.6145 24.5522 12.9985 22.6545C12.3825 20.7568 12.5196 18.0315 13.4098 14.4786L16.9598 0.341309H20.0895L16.5127 14.6187C16.0775 16.3494 16.0139 17.7404 16.3219 18.7916C16.6299 19.8428 17.243 20.3604 18.161 20.3445C19.1228 20.3445 20.0269 19.811 20.8734 18.7439C21.7199 17.6768 22.3896 16.1597 22.8824 14.1924L26.3638 0.341309Z" fill="black"/>
<path d="M32.3133 0.341309H37.899C39.1628 0.341309 39.9855 1.07157 40.367 2.52911C40.7485 3.98665 40.6889 5.71245 40.1882 7.70353C39.7385 9.6155 38.9094 11.4177 37.75 13.0031C36.6412 14.4716 35.4489 15.2058 34.1732 15.2058H31.6903L29.1836 25.1791H26.0718L32.3133 0.341309ZM34.3014 4.89277L32.8408 10.6544H34.3014C35.597 10.6544 36.4912 9.69461 36.984 7.77507C37.2542 6.69607 37.2691 5.94594 37.0287 5.52467C36.7882 5.10341 36.2497 4.89277 35.4132 4.89277H34.3014Z" fill="black"/>
<path d="M48.3942 20.6277L47.2497 25.1791H38.0186L44.2601 0.341309H53.366L52.2244 4.89277H46.2362L44.9277 10.103H50.6357L49.4911 14.6544H43.7831L42.2809 20.6277H48.3942Z" fill="black"/>
<path d="M56.1736 0.341309H61.7683C62.9824 0.341309 63.7932 1.0368 64.2005 2.42777C64.6079 3.81874 64.5632 5.50778 64.0664 7.49489C63.3808 10.2311 62.1548 12.256 60.3883 13.5695C60.8731 14.1398 61.0867 15.6679 61.0291 18.1537C60.9715 20.6396 60.9288 22.9844 60.9009 25.1881H57.4792C57.4792 24.3714 57.5149 22.8135 57.5865 20.5144C57.658 18.2153 57.5944 16.7389 57.3957 16.0851C57.199 15.4354 56.892 15.1075 56.4806 15.1075H55.5864L53.0529 25.1881H49.9321L56.1736 0.350251V0.341309ZM58.1468 4.89277L56.725 10.556H58.3763C58.6548 10.5468 58.9278 10.476 59.1757 10.3487C59.4236 10.2214 59.6402 10.0408 59.81 9.8198C60.3017 9.20503 60.6418 8.4831 60.8026 7.71247C61.2735 5.84062 60.9139 4.9037 59.7236 4.90171L58.1468 4.89277Z" fill="black"/>
<path d="M79.8967 0.341309L67.7863 25.501H66.4331L66.6894 0.341309H70.0874L69.834 14.5352L76.5375 0.341309H79.8967Z" fill="black"/>
<path d="M86.3557 20.6277L85.2111 25.1791H75.98L82.2215 0.341309H91.3304L90.1858 4.89277H84.1977L82.8892 10.103H88.5971L87.4525 14.6544H81.7446L80.2423 20.6277H86.3557Z" fill="black"/>
<path d="M98.5822 20.6277L97.4377 25.1791H87.8906L94.1351 0.341309H97.2559L92.1559 20.6277H98.5822Z" fill="black"/>
<path d="M111.852 0.0258812C113.986 0.0258812 115.392 1.3026 116.07 3.85603C116.747 6.40945 116.66 9.38216 115.807 12.7742C115.034 16.0208 113.585 19.0677 111.554 21.7161C109.581 24.2397 107.545 25.5026 105.447 25.5045C103.348 25.5065 101.937 24.2497 101.214 21.734C100.521 19.2203 100.605 16.2337 101.468 12.7742C102.244 9.53865 103.684 6.49976 105.697 3.85006C107.66 1.29862 109.712 0.0238941 111.852 0.0258812ZM106.731 20.348C107.924 20.348 109.052 19.6525 110.117 18.2615C111.182 16.8706 112.003 15.0424 112.579 12.7771C113.152 10.4999 113.251 8.66879 112.877 7.28378C112.505 5.89778 111.724 5.19732 110.544 5.19732C109.363 5.19732 108.222 5.89181 107.146 7.28378C106.07 8.67575 105.259 10.5118 104.687 12.7742C104.114 15.0365 104.019 16.8666 104.389 18.2586C104.758 19.6505 105.554 20.348 106.731 20.348Z" fill="black"/>
<path d="M129.116 17.6054L127.754 23.0272C125.767 24.6765 123.92 25.5002 122.213 25.4982C119.99 25.4982 118.525 24.2801 117.82 21.8439C117.114 19.4077 117.214 16.4062 118.118 12.8393C119.014 9.26255 120.47 6.2342 122.484 3.7543C124.499 1.27439 126.628 0.0294668 128.869 0.0195312C130.657 0.0195312 131.986 0.748799 132.854 2.20733L131.462 7.73645C130.371 6.04145 129.147 5.19395 127.79 5.19395C126.433 5.19395 125.166 5.90236 123.99 7.31916C122.708 8.89695 121.809 10.7494 121.361 12.732C120.806 14.9377 120.766 16.7569 121.239 18.1896C121.711 19.6223 122.597 20.3407 123.894 20.3446C124.588 20.3326 125.27 20.1591 125.885 19.8379C126.567 19.5021 127.644 18.7579 129.116 17.6054Z" fill="black"/>
<path d="M140.109 20.6277L138.965 25.1791H129.733L135.975 0.341309H145.081L143.936 4.89277H137.951L136.643 10.103H142.351L141.206 14.6544H135.498L133.996 20.6277H140.109Z" fill="black"/>
<path fill-rule="evenodd" clip-rule="evenodd" d="M89.5955 29.3205L86.2368 43.1978L86.1865 43.1978L86.2348 43.2061L86.2368 43.1978L91.2141 43.1986L94.5658 29.3205H89.5955ZM100.312 43.2061L93.3703 43.199L96.7203 29.3205H128.322C123.773 29.9272 115.873 32.6715 113.479 34.3474C111.069 36.034 112.73 36.8446 114.915 37.4597C114.777 37.4201 115.049 37.4974 114.915 37.4597C116.953 38.0417 118.382 38.2571 119.225 38.4173C120.462 38.6524 120.394 38.5776 119.464 39.1355C118.1 39.954 113.479 40.9399 108.212 40.9399C108.212 40.9399 103.195 42.8996 100.312 43.2061ZM118.028 43.2061H133.578L136.303 31.9533C134.122 31.8735 130.237 31.9533 128.562 32.4321C126.808 32.933 125.21 33.7089 127.604 34.108C130.477 34.5868 133.35 35.0656 133.35 36.7414C133.35 38.6567 123.773 41.769 118.028 43.2061Z" fill="black"/>
</svg>
