<svg width="146" height="26" viewBox="0 0 146 26" fill="none" xmlns="http://www.w3.org/2000/svg">
<path d="M14.0866 1.94339L12.8645 6.79888C11.5769 5.31849 10.4403 4.5773 9.45465 4.57531C8.90502 4.5677 8.37277 4.76783 7.96432 5.13568C7.52588 5.52953 7.22156 6.05062 7.09397 6.62601C6.97435 7.07001 6.98054 7.53853 7.11185 7.97923C7.243 8.40248 7.68712 8.95291 8.4442 9.63051C9.0945 10.1926 9.68122 10.8243 10.1938 11.5143C10.6586 12.2561 10.9396 13.0981 11.0135 13.9703C11.1546 15.0255 11.0215 16.3588 10.6141 17.9704C10.0359 20.2675 9.13472 22.0986 7.91066 23.4637C6.68661 24.8289 5.35525 25.5105 3.91658 25.5085C2.36068 25.5085 1.05515 24.7136 0 23.1239L1.34726 17.7588C1.75354 18.6494 2.29662 19.4711 2.95681 20.194C3.20161 20.4385 3.49343 20.6308 3.81464 20.7594C4.13585 20.888 4.47979 20.9501 4.82569 20.9421C6.04974 20.9421 6.85452 20.1781 7.24002 18.65C7.37237 18.162 7.37237 17.6476 7.24002 17.1597C7.11086 16.6967 6.66177 16.1343 5.89276 15.4726C5.2379 14.9267 4.64874 14.3066 4.13715 13.6246C3.67464 12.8894 3.3984 12.0525 3.33238 11.1864C3.20123 10.1313 3.34231 8.78003 3.75563 7.13272C4.29215 4.99857 5.15853 3.27575 6.35476 1.96426C7.551 0.652769 8.87441 -0.0019826 10.325 4.50931e-06C11.6643 4.50931e-06 12.9172 0.639853 14.0836 1.91955L14.0866 1.94339Z" fill="black"/>
<path d="M26.3639 0.341526H29.4817L25.9377 14.443C25.0256 18.0675 23.7936 20.8167 22.2417 22.6905C20.6897 24.5643 18.9103 25.5013 16.9033 25.5013C14.9162 25.5013 13.6146 24.5524 12.9986 22.6547C12.3826 20.757 12.5198 18.0317 13.41 14.4788L16.9599 0.341526H20.0896L16.5128 14.6189C16.0777 16.3496 16.0141 17.7406 16.3221 18.7918C16.6301 19.843 17.2431 20.3606 18.1611 20.3447C19.1229 20.3447 20.027 19.8112 20.8735 18.7441C21.7201 17.677 22.3897 16.1599 22.8825 14.1926L26.3639 0.341526Z" fill="black"/>
<path d="M32.3134 0.341526H37.8991C39.1629 0.341526 39.9856 1.07179 40.3671 2.52933C40.7486 3.98687 40.689 5.71267 40.1883 7.70375C39.7386 9.61571 38.9094 11.4179 37.7501 13.0034C36.6413 14.4718 35.449 15.2061 34.1733 15.2061H31.6904L29.1837 25.1793H26.0719L32.3134 0.341526ZM34.3015 4.89299L32.8409 10.6546H34.3015C35.5971 10.6546 36.4912 9.69483 36.9841 7.77529C37.2543 6.69629 37.2692 5.94616 37.0288 5.52489C36.7883 5.10362 36.2498 4.89299 35.4132 4.89299H34.3015Z" fill="black"/>
<path d="M48.3941 20.6279L47.2495 25.1793H38.0184L44.2599 0.341526H53.3658L52.2242 4.89299H46.2361L44.9275 10.1032H50.6355L49.4909 14.6546H43.783L42.2807 20.6279H48.3941Z" fill="black"/>
<path d="M56.1735 0.341526H61.7682C62.9823 0.341526 63.7931 1.03701 64.2004 2.42799C64.6078 3.81896 64.5631 5.508 64.0663 7.4951C63.3807 10.2313 62.1547 12.2562 60.3882 13.5697C60.873 14.14 61.0866 15.6681 61.029 18.1539C60.9714 20.6398 60.9287 22.9846 60.9008 25.1883H57.479C57.479 24.3716 57.5148 22.8137 57.5863 20.5146C57.6579 18.2155 57.5943 16.7391 57.3956 16.0854C57.1989 15.4356 56.8919 15.1077 56.4805 15.1077H55.5863L53.0528 25.1883H49.932L56.1735 0.350468V0.341526ZM58.1467 4.89299L56.7249 10.5562H58.3762C58.6547 10.547 58.9277 10.4762 59.1756 10.3489C59.4235 10.2216 59.6401 10.041 59.8099 9.82002C60.3016 9.20524 60.6417 8.48332 60.8025 7.71269C61.2734 5.84084 60.9138 4.90392 59.7235 4.90193L58.1467 4.89299Z" fill="black"/>
<path d="M79.8966 0.341526L67.7862 25.5013H66.433L66.6893 0.341526H70.0872L69.8339 14.5354L76.5374 0.341526H79.8966Z" fill="black"/>
<path d="M86.3557 20.6279L85.2111 25.1793H75.98L82.2215 0.341526H91.3304L90.1858 4.89299H84.1977L82.8892 10.1032H88.5971L87.4526 14.6546H81.7446L80.2424 20.6279H86.3557Z" fill="black"/>
<path d="M98.5823 20.6279L97.4378 25.1793H87.8907L94.1352 0.341526H97.2559L92.156 20.6279H98.5823Z" fill="black"/>
<path d="M111.852 0.0257779C113.986 0.0257779 115.392 1.30249 116.07 3.85592C116.747 6.40935 116.66 9.38206 115.808 12.774C115.034 16.0207 113.585 19.0676 111.554 21.716C109.581 24.2396 107.545 25.5024 105.447 25.5044C103.348 25.5064 101.938 24.2496 101.214 21.7339C100.521 19.2202 100.605 16.2336 101.468 12.774C102.244 9.53855 103.685 6.49966 105.697 3.84996C107.66 1.29852 109.712 0.0237908 111.852 0.0257779ZM106.731 20.3479C107.924 20.3479 109.052 19.6524 110.117 18.2614C111.183 16.8705 112.003 15.0423 112.579 12.777C113.152 10.4998 113.251 8.66869 112.878 7.28368C112.505 5.89767 111.724 5.19722 110.544 5.19722C109.363 5.19722 108.222 5.89171 107.146 7.28368C106.07 8.67564 105.259 10.5117 104.687 12.774C104.114 15.0364 104.019 16.8665 104.389 18.2585C104.758 19.6504 105.554 20.3479 106.731 20.3479Z" fill="black"/>
<path d="M129.116 17.6052L127.754 23.027C125.767 24.6763 123.92 25.5 122.213 25.498C119.989 25.498 118.525 24.2799 117.819 21.8437C117.114 19.4075 117.213 16.406 118.117 12.8391C119.014 9.26235 120.469 6.234 122.484 3.7541C124.499 1.27419 126.627 0.0292672 128.869 0.0193317C130.657 0.0193317 131.986 0.748599 132.854 2.20713L131.462 7.73625C130.371 6.04125 129.147 5.19375 127.79 5.19375C126.433 5.19375 125.166 5.90216 123.989 7.31896C122.708 8.89675 121.808 10.7492 121.36 12.7318C120.806 14.9375 120.765 16.7567 121.238 18.1894C121.711 19.6221 122.596 20.3405 123.894 20.3444C124.588 20.3324 125.27 20.1589 125.885 19.8377C126.567 19.5019 127.644 18.7577 129.116 17.6052Z" fill="black"/>
<path d="M140.109 20.6279L138.964 25.1793H129.733L135.975 0.341526H145.081L143.936 4.89299H137.951L136.642 10.1032H142.35L141.206 14.6546H135.498L133.995 20.6279H140.109Z" fill="black"/>
</svg>
