<svg width="204" height="40" viewBox="0 0 204 40" fill="none" xmlns="http://www.w3.org/2000/svg">
<path fill-rule="evenodd" clip-rule="evenodd" d="M54.2657 10.039L57.3604 6.9803C58.5479 5.7568 60.8869 5.00111 63.3339 5.00111H109.791C112.49 5.00111 114.973 4.17345 116.268 2.87799L119.039 0.0351562H29.6518C26.4851 0.0351562 23.5343 1.00676 22.0229 2.55412L0 24.9729H34.8696C37.7485 24.9729 40.4114 24.0733 41.7788 22.7058L47.6084 16.7683C48.688 15.6887 50.7751 15.005 53.0422 15.005H91.6183C94.641 15.005 97.4479 14.0694 98.9233 12.594L101.406 10.075L54.2657 10.039Z" fill="black"/>
<path fill-rule="evenodd" clip-rule="evenodd" d="M126.956 0C125.48 0.0719704 124.077 0.719704 123.069 1.79926L120.011 5.00194H166.252L162.833 8.4925C161.933 9.4641 160.71 10.0399 159.378 10.0759H117.348C115.872 10.1118 114.469 10.7596 113.461 11.8391L110.403 15.0418H156.212L153.009 18.3524C152.109 19.324 150.85 19.8998 149.518 19.9718H107.704C106.228 20.0078 104.825 20.6555 103.817 21.735L100.687 24.9377H176.759C178.63 24.9377 180.43 24.182 181.761 22.8506L201.409 2.6629L204 0H126.956V0Z" fill="black"/>
<path d="M174.299 31.668H140.573C139.471 31.668 139.077 32.0436 139.077 32.0436C139.077 32.0436 133.487 38.0113 132.568 38.9294C132.175 39.305 132.647 39.9101 133.356 39.9309H134.484C134.484 39.9309 165.743 39.9727 167.554 39.9101C168.709 39.8892 169.076 39.7223 169.313 39.5345C169.47 39.4093 169.628 39.2632 169.733 39.0963C169.733 39.0963 171.15 37.8026 171.386 37.5313C171.622 37.2601 170.546 37.2601 170.546 37.2601L159.182 37.2392L157.476 38.8459H146.61L152.436 32.7739H163.801L162.279 34.2762H174.798C175.48 33.6711 176.084 33.0243 176.662 32.3565C176.977 31.6888 174.299 31.6888 174.299 31.6888" fill="black"/>
<path d="M118.865 35.1925C119.383 35.2134 119.901 35.1087 120.341 34.8785C120.703 34.6901 121.066 34.2923 121.376 34.0202C122.283 33.1619 122.101 32.7432 121.247 32.7432H110.32L107.731 35.1715L118.865 35.1925ZM106.773 36.1764L102.759 39.9236H90.6149C90.6149 39.9236 89.9676 39.9446 89.6828 39.5677C89.398 39.1909 89.9676 38.835 89.9676 38.835L95.0686 34.062L97.1142 32.1151C97.3214 31.9686 97.5285 31.843 97.7874 31.7593C98.0982 31.6755 98.4089 31.6546 98.7196 31.6755H131.035C132.795 31.6755 134.66 32.2826 134.582 33.0991C134.556 33.4131 133.417 34.711 132.252 35.1925C131.734 35.4437 131.138 35.5902 130.517 35.6112C128.73 35.7786 126.193 35.7786 125.623 35.7786L124.018 35.7368C124.018 35.7368 127.021 35.9252 128.86 36.3439C129.326 36.4485 129.766 36.6369 130.128 36.9091C130.413 37.0975 130.517 37.3068 130.258 37.7674C129.999 38.2279 129.662 38.4582 129.3 38.8141L128.212 39.9446H126.503L114.644 39.9027L117.285 37.3068C117.441 37.1603 117.544 36.9928 117.622 36.8254C117.648 36.6579 117.725 36.4067 117.208 36.2601C116.69 36.1136 106.773 36.1764 106.773 36.1764Z" fill="black"/>
</svg>
