<svg width="109" height="41" viewBox="0 0 109 41" fill="none" xmlns="http://www.w3.org/2000/svg">
<path fill-rule="evenodd" clip-rule="evenodd" d="M49.7864 39.9872L51.509 34.9606L47.1074 31.8394L52.4936 31.8482L54.2152 26.8221L55.798 31.8547L61.3046 31.863L56.8947 34.9698L58.5979 40.002L54.1991 36.8808L49.7864 39.9872Z" fill="#1559A0"/>
<path fill-rule="evenodd" clip-rule="evenodd" d="M81.2238 33.4591L82.3612 30.1403L79.4551 28.0798L83.0115 28.0854L84.1479 24.7671L85.1929 28.0895L88.8283 28.0951L85.9171 30.1463L87.0415 33.4688L84.1373 31.4083L81.2238 33.4591Z" fill="#1559A0"/>
<path fill-rule="evenodd" clip-rule="evenodd" d="M21.6906 33.4591L22.828 30.1403L19.9219 28.0798L23.4783 28.0854L24.6147 24.7671L25.6597 28.0895L29.2951 28.0951L26.3839 30.1463L27.5083 33.4688L24.6041 31.4083L21.6906 33.4591Z" fill="#1559A0"/>
<path d="M9.48816 8.2378C9.29568 7.65991 8.03374 3.62019 7.88326 3.13831C7.79833 2.84659 7.75448 2.71273 7.64786 2.71273C7.51677 2.71273 7.45538 2.79028 7.39076 2.96291C7.28367 3.21308 5.44106 7.75592 5.26797 8.23734L9.48816 8.2378ZM4.9901 9.00725C4.81839 9.40975 3.76923 12.0467 3.76877 12.6634C3.76877 13.0876 3.96079 13.5473 4.6033 13.5473H5.35336C5.56846 13.5473 5.5883 13.6253 5.5883 13.701V14.1238C5.5883 14.2808 5.56846 14.338 5.39721 14.338C5.1175 14.338 4.2405 14.2803 2.48328 14.2798C0.920845 14.2798 0.448652 14.3371 0.14955 14.3371C0.0203091 14.3371 0 14.2208 0 14.0855V13.7204C0 13.6055 0.0207707 13.5464 0.14955 13.5464L0.707135 13.5469C1.21948 13.5469 1.73599 13.2764 2.16248 12.7022C2.46389 12.2951 3.98386 8.94679 4.69146 7.25695C4.86317 6.86738 6.59823 2.73304 6.79163 2.21285C6.85579 2.01714 6.96334 1.7702 6.81287 1.55556C6.74732 1.48125 6.66285 1.38616 6.66285 1.30723C6.66285 1.25277 6.70578 1.17061 6.87795 1.13322C7.562 0.997979 8.95412 0.499937 9.27584 0.170371C9.382 0.0757483 9.448 -0.000411353 9.55463 -0.000411353C9.68249 -0.000411353 9.72587 0.116368 9.79049 0.329155C10.1971 1.53895 11.8653 5.85099 12.2729 7.08294C12.7649 8.58491 14.157 12.1635 14.4556 12.6837C14.8194 13.3175 15.3774 13.5492 15.6987 13.5492H16.4261C16.554 13.5492 16.5775 13.6272 16.5775 13.7232V14.0883C16.5775 14.2064 16.554 14.3398 16.3836 14.3398C15.9761 14.3398 15.5265 14.2821 12.7857 14.2817C11.0072 14.2817 10.2562 14.3389 9.83111 14.3389C9.61556 14.3389 9.59525 14.2221 9.59525 14.0869V13.7223C9.59525 13.6258 9.61556 13.5482 9.7231 13.5482H10.3222C10.901 13.5482 11.0935 13.3571 10.9666 12.8573C10.7713 12.163 9.93774 9.70239 9.68064 9.00817L4.9901 9.00725Z" fill="#1559A0"/>
<path d="M20.6611 11.7633C20.7253 12.4764 21.0692 13.5542 21.7758 13.5542L22.6113 13.5547C22.7387 13.5547 22.7618 13.6133 22.7618 13.6894V14.2115C22.7618 14.2877 22.7382 14.3449 22.567 14.3449C22.3316 14.3449 21.7527 14.2872 20.1903 14.2872C18.3694 14.2867 17.6193 14.344 17.4273 14.344C17.2556 14.344 17.2344 14.3255 17.2344 14.1699V13.6687C17.2344 13.6124 17.2561 13.5537 17.3632 13.5537H18.2411C18.9265 13.5537 19.1832 12.6703 19.2708 12.0536C19.461 10.6869 19.6563 6.1436 19.6563 5.7988L19.636 2.85256C19.636 1.96864 19.4209 1.39259 18.458 1.39259L17.7518 1.39213C17.6216 1.39213 17.5999 1.33305 17.5999 1.25874V0.718229C17.5999 0.660532 17.6221 0.600065 17.7523 0.600065C17.9655 0.600065 18.5439 0.660993 21.0719 0.661455C22.0782 0.661455 22.741 0.600988 22.9981 0.600988C23.2122 0.600988 23.3835 0.619913 23.5114 0.930554C24.8827 4.20175 26.4248 7.39678 27.6222 10.2844C27.858 9.91929 29.4865 6.33792 29.6152 6.06928C29.7016 5.87819 31.8433 1.27812 31.9504 0.892704C32.0154 0.681764 32.2928 0.663302 32.9354 0.663302C36.2772 0.663763 37.0046 0.603296 37.2405 0.603296C37.3485 0.603296 37.3697 0.663763 37.3697 0.778696V1.22135C37.3697 1.33628 37.3485 1.39536 37.1985 1.39536H36.2559C35.7625 1.39536 35.6988 1.74016 35.6984 2.14404C35.6984 2.43114 35.7191 7.16691 35.7413 7.57079C35.7413 7.95759 35.8045 12.1713 35.8045 12.5189C35.8041 13.2491 35.9951 13.5565 36.2956 13.5565L37.3231 13.557C37.4528 13.557 37.4722 13.6161 37.4722 13.6922V14.1736C37.4722 14.29 37.4528 14.3477 37.2816 14.3477C37.024 14.3472 36.6386 14.29 34.1119 14.2895C31.9273 14.289 31.0927 14.3463 30.814 14.3463C30.6635 14.3463 30.6404 14.289 30.6404 14.1723L30.6409 13.6908C30.6409 13.5962 30.6635 13.5556 30.814 13.5561H32.0127C32.3759 13.5561 32.5698 13.4397 32.6127 12.902C32.6339 12.6721 32.6995 9.16969 32.7 7.82004L32.7009 1.95248H32.5726C32.357 2.2802 29.9582 7.5154 29.5723 8.30101C29.1227 9.18954 27.2155 13.4573 27.1089 13.6327C27.0013 13.7864 26.8495 14.0772 26.5938 14.0772C26.4428 14.0767 26.3154 13.9419 26.2093 13.7291C26.1428 13.5953 23.3193 7.62757 23.1689 7.27815C22.7839 6.39608 20.8134 2.08403 20.6422 1.85232C20.5563 2.12096 20.5143 6.99336 20.5139 7.22184C20.5139 7.45171 20.5333 10.0702 20.6611 11.7633Z" fill="#1559A0"/>
<path d="M44.0924 6.91582C45.0765 6.91582 46.019 6.85858 46.2761 6.79996C46.6412 6.7238 46.9403 6.55117 47.262 6.2036C47.4979 5.91281 47.7545 5.37554 47.7545 5.01227C47.7545 4.87842 47.8182 4.83965 47.9267 4.84011L48.5041 4.89596C48.6117 4.91442 48.698 4.93335 48.6749 5.04828C48.6112 5.376 48.6112 6.37762 48.6112 7.05152C48.6108 7.91836 48.6971 8.84244 48.7386 9.24493C48.7599 9.36263 48.674 9.38017 48.5669 9.39679L48.0536 9.49787C47.9678 9.51495 47.9258 9.47756 47.8815 9.34232C47.797 9.03491 47.5824 8.59226 47.4541 8.3624C47.2182 7.9959 46.704 7.74435 46.2757 7.68803C45.6991 7.60864 45.034 7.56987 44.0924 7.56987L44.0919 8.72519C44.0919 9.76605 44.1986 11.6313 44.1986 11.9793C44.1981 12.9777 44.434 13.3243 44.7114 13.4393C45.0331 13.5561 45.4416 13.6151 46.5101 13.6151C46.8743 13.6151 47.7744 13.5967 48.2254 13.5565C48.6523 13.5205 49.2948 13.3253 49.8515 12.9228C50.4105 12.5194 51.6082 11.3248 52.0366 10.8637C52.1224 10.7861 52.1875 10.7644 52.2498 10.8064L52.614 10.9989C52.7017 11.0363 52.722 11.0954 52.7017 11.1545L51.7361 14.0587C51.671 14.2309 51.5219 14.3477 51.2648 14.3477C51.1568 14.3472 50.686 14.3287 49.317 14.3084C47.9249 14.308 45.6539 14.289 41.9493 14.2886C41.1572 14.2881 40.5572 14.307 40.1284 14.3066C39.6783 14.3269 39.4005 14.3453 39.208 14.3453C39.0575 14.3453 39.0137 14.2881 39.0137 14.1312L39.0141 13.7287C39.0141 13.6138 39.0792 13.5547 39.2288 13.5551H39.8708C40.8572 13.5551 40.9431 13.4217 40.9431 12.746L40.9444 6.30007C40.9444 4.7021 40.902 2.33652 40.8794 2.14219C40.7958 1.52599 40.5807 1.39352 40.0024 1.39352H39.1683C39.082 1.39352 39.0603 1.33443 39.0603 1.19919V0.736694C39.0603 0.680381 39.082 0.601451 39.2108 0.601451C39.6811 0.601451 40.4307 0.662379 42.379 0.662379L49.8967 0.644839C50.2401 0.645301 50.6468 0.603297 50.7543 0.603297C50.8614 0.603297 50.9016 0.645301 50.9246 0.699767C51.0114 0.971635 51.7172 3.60724 51.8035 3.79833C51.8455 3.89618 51.8455 3.93172 51.7379 3.99265L51.3964 4.14636C51.3105 4.18651 51.2025 4.16621 51.1374 4.06835C51.0313 3.91465 49.1033 2.18097 48.6122 1.91233C48.1626 1.66354 47.563 1.41521 46.9846 1.3949L44.1561 1.31505L44.0924 6.91582Z" fill="#1559A0"/>
<path d="M71.4113 6.22587C71.4113 5.76475 71.3503 2.29924 71.3277 2.04952C71.2839 1.58795 71.0706 1.39685 70.6243 1.39685H69.5913C69.4865 1.39685 69.4219 1.35624 69.4219 1.28008V0.722492C69.4219 0.646331 69.4865 0.60479 69.5719 0.60479C69.8281 0.60479 70.922 0.665256 73.0217 0.665718C75.2022 0.66618 75.8895 0.605713 76.19 0.605713C76.2961 0.605713 76.3418 0.66618 76.3418 0.781112V1.26438C76.3418 1.35762 76.2754 1.39778 76.1687 1.39778H75.5479C75.0111 1.39778 74.6903 1.54964 74.6903 1.89766C74.6903 2.08876 74.6266 6.34126 74.6266 6.57436L74.6261 8.05463C74.6261 8.24849 74.688 12.6939 74.688 12.8679C74.688 13.4611 75.0088 13.5589 75.4182 13.5589L76.2938 13.5594C76.3995 13.5594 76.4665 13.5995 76.4665 13.6942V14.2333C76.4665 14.3108 76.3995 14.3496 76.2731 14.3496C76.0183 14.3496 75.1583 14.2919 73.1246 14.2919C70.8745 14.2915 69.9559 14.3487 69.7168 14.3487C69.612 14.3487 69.5493 14.3099 69.5493 14.195V13.6729C69.5493 13.5986 69.612 13.558 69.7173 13.558H70.339C70.7697 13.5585 71.2188 13.5008 71.3042 13.041C71.348 12.7493 71.4108 8.59468 71.4108 7.57228L71.4113 6.22587Z" fill="#1559A0"/>
<path d="M80.2647 12.8119C78.6838 11.5412 77.9351 9.32929 77.9355 7.67362C77.936 5.69023 78.6427 3.90115 80.1419 2.45688C81.3618 1.28448 83.1403 0.377481 85.7943 0.377943C87.7445 0.378405 89.3513 0.824287 90.1004 1.18662C90.4023 1.32325 90.5052 1.30433 90.5486 1.16955L90.7212 0.689507C90.7637 0.574574 90.8038 0.574575 91.1292 0.574575C91.4491 0.574575 91.4939 0.610578 91.4939 0.879215C91.4939 1.24894 91.8775 4.51828 91.985 5.09756C92.0053 5.22957 91.985 5.32927 91.8775 5.34635L91.4085 5.46082C91.2968 5.49959 91.2133 5.42205 91.1491 5.24988C90.9169 4.4809 90.3381 3.49912 89.4353 2.6729C88.5167 1.86191 87.3812 1.2277 85.7514 1.2277C82.6252 1.22724 81.2986 3.78484 81.3198 6.63507C81.3194 7.84486 81.7015 10.2137 83.2238 11.6584C84.6159 12.9494 85.8359 13.1031 86.5652 13.1031C89.0046 13.1036 90.8255 12.1006 91.6181 11.0431C91.7274 10.8894 91.8336 10.8133 91.9398 10.8894L92.3035 11.177C92.3663 11.2158 92.388 11.2933 92.3035 11.4096C91.0614 13.0247 88.9838 14.5825 85.9656 14.582C83.1149 14.5816 81.6157 13.8901 80.2647 12.8119Z" fill="#1559A0"/>
<path d="M101.409 8.25343C101.215 7.67554 99.9523 3.63582 99.8027 3.15393C99.715 2.86222 99.673 2.72836 99.5664 2.72836C99.439 2.72836 99.3739 2.8059 99.3098 2.97853C99.2027 3.22871 97.3601 7.77154 97.186 8.25251L101.409 8.25343ZM96.91 9.02288C96.7379 9.42537 95.6905 12.0624 95.6901 12.679C95.6901 13.1032 95.8802 13.5629 96.5246 13.5629H97.2728C97.4842 13.5629 97.5082 13.6409 97.5082 13.7166V14.1395C97.5082 14.2964 97.4842 14.3536 97.3171 14.3536C97.037 14.3536 96.1595 14.2959 94.4027 14.2955C92.8385 14.2955 92.3663 14.3527 92.0676 14.3527C91.9398 14.3527 91.9199 14.2364 91.9199 14.1011V13.736C91.9199 13.6211 91.9398 13.562 92.0681 13.562L92.6261 13.5625C93.138 13.5625 93.6541 13.292 94.0815 12.7178C94.381 12.3107 95.9042 8.96241 96.6091 7.27258C96.7831 6.88301 98.5186 2.74867 98.7148 2.22847C98.7734 2.03276 98.8791 1.78536 98.7286 1.57119C98.6677 1.49687 98.5809 1.40179 98.5809 1.32286C98.5809 1.26839 98.6239 1.18623 98.796 1.14885C99.4833 1.0136 100.875 0.515562 101.196 0.185996C101.303 0.0913733 101.366 0.0152136 101.474 0.0152136C101.603 0.0152136 101.646 0.131993 101.71 0.34478C102.117 1.55457 103.785 5.86662 104.191 7.0981C104.684 8.60053 106.075 12.1791 106.374 12.6993C106.74 13.3331 107.295 13.5648 107.617 13.5648H108.343C108.474 13.5648 108.493 13.6428 108.493 13.7388V14.1039C108.493 14.2221 108.474 14.3555 108.302 14.3555C107.896 14.3555 107.446 14.2978 104.704 14.2973C102.927 14.2968 102.176 14.3545 101.75 14.3545C101.534 14.3545 101.511 14.2378 101.511 14.1025V13.7379C101.511 13.6414 101.534 13.5639 101.643 13.5639H102.241C102.82 13.5639 103.013 13.3728 102.885 12.8729C102.691 12.1787 101.854 9.71801 101.601 9.0238L96.91 9.02288Z" fill="#1559A0"/>
<path d="M58.941 7.63044C58.7457 7.63044 58.4895 7.63044 58.0824 7.61013L58.1937 1.98905C58.2343 1.76242 58.2989 1.54825 58.4277 1.47024C58.5971 1.33685 58.8759 1.29807 59.2405 1.29807C59.8835 1.29807 60.8491 1.5284 61.6172 2.14507C62.0903 2.56741 62.4305 3.41579 62.4305 4.29971C62.4305 5.20486 61.7667 7.6309 58.941 7.63044ZM68.1674 13.5589C67.6772 13.5589 66.8635 13.4066 66.6045 13.1546C66.1771 12.7138 65.0222 11.2487 64.8916 11.0747C64.7231 10.8449 63.5424 9.1301 63.2646 8.82269C62.8607 8.36435 62.5168 7.99786 61.854 7.80353V7.66968C63.7372 7.51782 65.7718 6.41834 65.7723 3.97245C65.7723 3.26254 65.3236 2.51202 64.5528 1.87551C63.6721 1.14345 62.4314 0.604325 60.7614 0.604325C59.8835 0.603864 57.9998 0.66433 56.8016 0.66433C54.4678 0.663868 53.8013 0.602939 53.6079 0.602939C53.5013 0.602939 53.4778 0.644943 53.4778 0.738182V1.26161C53.4778 1.33592 53.5008 1.39501 53.6075 1.39501L54.4678 1.39547C54.7656 1.39547 55.043 1.72134 55.0651 2.35508C55.0868 2.87574 55.0863 4.10723 55.0863 5.53165L55.0859 7.39827C55.0859 7.83954 55.085 8.28219 55.0845 8.72484L55.0286 13.0272C55.0286 13.0272 55.0185 13.3711 54.7679 13.3983C54.5468 13.4223 53.5142 13.4523 53.5142 13.4523C53.5142 13.4523 53.3536 13.4523 53.3637 13.6337C53.3661 13.6762 53.3937 14.014 53.3937 14.014C53.3937 14.014 53.3536 14.3491 53.5539 14.3491C53.7547 14.3491 57 14.2919 57 14.2919C58.9174 14.2951 59.3896 14.3482 59.4095 14.3482C59.7312 14.3482 59.7543 14.3095 59.7543 14.1742V13.7112C59.7543 13.6166 59.7312 13.5575 59.5821 13.5575H58.7014C58.3797 13.5575 58.2121 13.2123 58.1674 12.807C58.1244 12.5587 58.0603 10.4027 58.0607 9.26581V8.28403L58.7905 8.28449C59.8166 8.28449 60.6973 9.71215 61.4243 11.0198C61.787 11.6725 63.115 13.906 63.7594 14.3487C64.3793 14.3302 65.1723 14.2915 65.794 14.2915C67.4414 14.2919 67.9962 14.3496 68.1674 14.3496C68.3188 14.3496 68.34 14.2919 68.3405 14.1756V13.7126C68.3405 13.6365 68.3188 13.5589 68.1674 13.5589Z" fill="#1559A0"/>
<path d="M0.0136719 20.4633L1.6195 20.2223C1.75428 20.6013 2.10092 20.791 2.65943 20.791C3.09469 20.791 3.31163 20.6945 3.31163 20.5016C3.31163 20.4005 3.26132 20.3216 3.16116 20.2653C3.06054 20.209 2.88098 20.1591 2.6225 20.1157C1.63427 19.9574 1.00006 19.7511 0.719422 19.4958C0.438784 19.241 0.298464 18.941 0.298464 18.5967C0.298464 18.1531 0.500173 17.7843 0.903129 17.4903C1.30655 17.1963 1.88629 17.0495 2.64327 17.0495C3.79075 17.0495 4.54866 17.434 4.91746 18.2034L3.48519 18.5653C3.33656 18.2505 3.03515 18.0931 2.58142 18.0931C2.20431 18.0931 2.01553 18.1909 2.01553 18.3862C2.01553 18.4734 2.05845 18.5408 2.14385 18.5893C2.22878 18.6373 2.39402 18.6835 2.63912 18.7268C3.31348 18.8455 3.79214 18.9512 4.076 19.0426C4.35941 19.1344 4.59574 19.2909 4.78545 19.5129C4.97562 19.7345 5.07024 19.9962 5.07024 20.2971C5.07024 20.773 4.83899 21.1584 4.37695 21.4538C3.91445 21.7492 3.30794 21.8965 2.5565 21.8965C1.18331 21.8965 0.335852 21.4188 0.0136719 20.4633Z" fill="#1559A0"/>
<path d="M10.419 19.104H10.9969C11.506 19.104 11.7603 18.948 11.7603 18.6355C11.7603 18.3415 11.5254 18.1943 11.0546 18.1943H10.419V19.104ZM10.4439 20.113V21.8223H8.68945V17.1193H11.0961C11.6957 17.1193 12.1522 17.177 12.4642 17.2919C12.7767 17.4068 13.0241 17.5822 13.2074 17.819C13.3901 18.0553 13.482 18.3207 13.482 18.6148C13.482 19.0625 13.2946 19.4244 12.9203 19.6999C12.5464 19.9755 12.0465 20.113 11.422 20.113H10.4439Z" fill="#1559A0"/>
<path d="M21.3231 20.6993V21.8223H17.084V17.1197H21.3231V18.2049H18.7803V18.8871H20.8361V19.9312H18.7803V20.6993H21.3231Z" fill="#1559A0"/>
<path d="M28.0683 20.0289L29.6492 20.1083C29.5749 20.6848 29.3196 21.127 28.8839 21.4349C28.4473 21.7423 27.9114 21.8965 27.2758 21.8965C26.5109 21.8965 25.8929 21.6851 25.4225 21.2623C24.9517 20.8399 24.7168 20.2565 24.7168 19.5124C24.7168 18.7753 24.9393 18.1803 25.3852 17.728C25.831 17.2752 26.4532 17.049 27.2513 17.049C27.9968 17.049 28.57 17.2212 28.9702 17.566C29.3709 17.9103 29.597 18.3673 29.6492 18.9369L28.0355 19.0093C28.0355 18.6945 27.9631 18.467 27.8186 18.3271C27.6741 18.1873 27.5043 18.1171 27.309 18.1171C26.7639 18.1171 26.4916 18.5741 26.4916 19.488C26.4916 20.0003 26.5622 20.3484 26.7043 20.5321C26.846 20.7158 27.045 20.8076 27.3007 20.8076C27.7572 20.8076 28.0134 20.5482 28.0683 20.0289Z" fill="#1559A0"/>
<path d="M34.9678 21.8223H33.2383V17.1197H34.9678V21.8223Z" fill="#1559A0"/>
<path d="M40.4818 19.8689H41.3934L40.9378 18.5045L40.4818 19.8689ZM42.0156 21.8223L41.6971 20.8954H40.1878L39.8494 21.8223H38.4453L40.185 17.1197H42.0133L43.7807 21.8223H42.0156Z" fill="#1559A0"/>
<path d="M51.208 20.6683V21.8223H47.2578V17.1197H48.9873V20.6683H51.208Z" fill="#1559A0"/>
<path d="M64.0809 20.6993V21.8223H59.8418V17.1197H64.0809V18.2049H61.5381V18.8871H63.594V19.9312H61.5381V20.6993H64.0809Z" fill="#1559A0"/>
<path d="M69.458 20.7403H69.9081C70.1938 20.7403 70.4352 20.6245 70.6323 20.3923C70.8289 20.1601 70.9277 19.8449 70.9277 19.4447C70.9277 19.1027 70.84 18.8077 70.6651 18.5594C70.4906 18.3115 70.2381 18.1874 69.9081 18.1874H69.458V20.7403ZM67.7285 21.8223V17.1193H69.9081C70.8543 17.1193 71.5633 17.3537 72.0336 17.8222C72.504 18.2907 72.7394 18.8331 72.7394 19.4484C72.7394 20.1514 72.4869 20.7228 71.9819 21.1627C71.477 21.6026 70.8211 21.8223 70.0152 21.8223H67.7285Z" fill="#1559A0"/>
<path d="M78.1553 21.8223H76.4258V17.1197H78.1553V21.8223Z" fill="#1559A0"/>
<path d="M84.4123 18.2464V21.8223H82.7733V18.2464H81.6055V17.1197H85.5801V18.2464H84.4123Z" fill="#1559A0"/>
<path d="M90.7608 21.8223H89.0312V17.1197H90.7608V21.8223Z" fill="#1559A0"/>
<path d="M97.1277 20.8284C97.4195 20.8284 97.6295 20.7222 97.7573 20.5099C97.8852 20.2971 97.9494 19.9085 97.9494 19.3435C97.9494 18.5261 97.6867 18.1171 97.161 18.1171C96.5942 18.1171 96.3108 18.5833 96.3108 19.5157C96.3108 20.3908 96.5831 20.8284 97.1277 20.8284ZM97.1361 21.8965C96.3435 21.8965 95.6973 21.6772 95.1979 21.2383C94.6989 20.7998 94.4492 20.2131 94.4492 19.4778C94.4492 18.7753 94.6874 18.1946 95.1651 17.7363C95.6424 17.2784 96.3052 17.049 97.1527 17.049C97.9369 17.049 98.5762 17.265 99.0701 17.6966C99.5639 18.1286 99.8109 18.7051 99.8109 19.4261C99.8109 20.1725 99.5616 20.7712 99.0641 21.2212C98.5656 21.6712 97.923 21.8965 97.1361 21.8965Z" fill="#1559A0"/>
<path d="M108.315 21.8223H106.908L105.364 19.7442C105.166 19.4779 104.966 19.1544 104.765 18.7731C104.856 19.0763 104.901 19.3334 104.901 19.5448V21.8223H103.498V17.1197H105.132L106.446 18.8419C106.707 19.1844 106.905 19.4853 107.04 19.7447C106.952 19.3431 106.908 18.9319 106.908 18.5114V17.1197H108.315V21.8223Z" fill="#1559A0"/>
</svg>
